# xmcd
#
# Track frame offsets: 
#        150
#        19141
#        33513
#        50894
#        66675
#        82044
#        100483
#        118065
#        131455
#        152954
#        173882
#        203721
#        218398
#        233622
#        250463
#        269622
#
# Disc length: 3827 seconds
#
# Revision: 0
# Processed by: cddbd v1.5.2PL0 Copyright (c) Steve Scherf et al.
# Submitted via: ExactAudioCopy v1.0b1
#
DISCID=f00ef110
DTITLE=Gretchen Peters - Circus Girl [CD2]
DYEAR=2009
DGENRE=Country
TTITLE0=KBCO Radio Interview
TTITLE1=Black Eyed Susan (Home Cassette)
TTITLE2=Out To Sea (Demo)
TTITLE3=Ships (Demo)
TTITLE4=Circus Girl (Work Tape)
TTITLE5=You Don't Even Know Who I Am (Demo)
TTITLE6=Let That Pony Run (Acoustic Cassingle)
TTITLE7=If I Could Just Get Over You (Live)
TTITLE8=Die Young (Live)
TTITLE9=Closing Time (Live)
TTITLE10=Beloved Enemy (Live)
TTITLE11=Tattoo (Demo)
TTITLE12=Breakfast At Our House (Work Tape)
TTITLE13=Jezebel (Work Tape)
TTITLE14=Jesus On My Dashboard (Work Tape)
TTITLE15=Mother (Master)
EXTD=
EXTT0=
EXTT1=
EXTT2=
EXTT3=
EXTT4=
EXTT5=
EXTT6=
EXTT7=
EXTT8=
EXTT9=
EXTT10=
EXTT11=
EXTT12=
EXTT13=
EXTT14=
EXTT15=
PLAYORDER=
